<svg xmlns="http://www.w3.org/2000/svg" xmlns:xlink="http://www.w3.org/1999/xlink" width="40" zoomAndPan="magnify" viewBox="0 0 30 30.000001" height="40" preserveAspectRatio="xMidYMid meet" version="1.0"><defs><g/><clipPath id="id1"><path d="M 0.484375 0 L 29.515625 0 L 29.515625 29.03125 L 0.484375 29.03125 Z M 0.484375 0 " clip-rule="nonzero"/></clipPath><clipPath id="id2"><path d="M 10 1.691406 L 20 1.691406 L 20 8 L 10 8 Z M 10 1.691406 " clip-rule="nonzero"/></clipPath><clipPath id="id3"><path d="M 8.09375 6 L 21.886719 6 L 21.886719 20.558594 L 8.09375 20.558594 Z M 8.09375 6 " clip-rule="nonzero"/></clipPath></defs><g clip-path="url(#id1)"><path fill="#ffffff" d="M 0.484375 0 L 29.515625 0 L 29.515625 36.289062 L 0.484375 36.289062 Z M 0.484375 0 " fill-opacity="1" fill-rule="nonzero"/><path fill="#ffffff" d="M 0.484375 0 L 29.515625 0 L 29.515625 29.03125 L 0.484375 29.03125 Z M 0.484375 0 " fill-opacity="1" fill-rule="nonzero"/><path fill="#ffffff" d="M 0.484375 0 L 29.515625 0 L 29.515625 29.03125 L 0.484375 29.03125 Z M 0.484375 0 " fill-opacity="1" fill-rule="nonzero"/><path fill="#ffffff" d="M 0.484375 0 L 29.515625 0 L 29.515625 29.03125 L 0.484375 29.03125 Z M 0.484375 0 " fill-opacity="1" fill-rule="nonzero"/></g><g clip-path="url(#id2)"><path fill="#000000" d="M 12.089844 7.371094 C 14.445312 6.929688 15.070312 6.542969 17.820312 7.371094 L 19.398438 4.785156 L 17.117188 5.429688 L 15.308594 2.851562 L 15.664062 2.480469 L 14.957031 1.75 L 14.25 2.480469 L 14.621094 2.867188 L 12.816406 5.4375 L 10.527344 4.796875 L 10.511719 4.789062 L 12.089844 7.375 C 12.089844 7.375 12.09375 7.375 12.09375 7.375 Z M 15.484375 5.605469 L 14.957031 6.230469 L 14.425781 5.605469 L 14.957031 4.988281 Z M 15.484375 5.605469 " fill-opacity="1" fill-rule="evenodd"/></g><path fill="#ff1616" d="M 14.988281 9.132812 C 17 8.773438 17.242188 9.261719 18.199219 10.566406 C 15.394531 10.574219 16.039062 12.148438 16.042969 11.929688 C 16.453125 10.804688 17.6875 11.640625 17.960938 10.917969 C 19.6875 12.199219 17.136719 12.550781 17.019531 12.996094 C 17.546875 13.773438 17.632812 14.359375 17.28125 14.761719 C 16.398438 14.882812 15.707031 14.574219 15.203125 13.835938 L 16.179688 12.785156 C 15.984375 12.21875 15.355469 12.785156 14.992188 12.753906 C 14.625 12.789062 13.996094 12.21875 13.804688 12.785156 L 14.78125 13.835938 C 14.28125 14.574219 13.585938 14.882812 12.699219 14.761719 C 12.351562 14.359375 12.441406 13.769531 12.964844 12.996094 C 12.847656 12.550781 10.296875 12.199219 12.023438 10.917969 C 12.292969 11.640625 13.527344 10.804688 13.941406 11.929688 C 13.945312 12.148438 14.582031 10.570312 11.785156 10.566406 C 12.742188 9.257812 12.984375 8.769531 14.996094 9.132812 Z M 14.988281 14.722656 C 16.195312 14.339844 17.875 15.84375 16.03125 16.582031 C 15.445312 16.816406 15.421875 16.472656 14.988281 16.429688 C 14.554688 16.472656 14.53125 16.816406 13.945312 16.582031 C 12.097656 15.84375 13.78125 14.339844 14.988281 14.722656 Z M 20.691406 8.59375 C 19.25 8.011719 17.347656 7.605469 14.988281 7.375 C 12.628906 7.605469 10.726562 8.011719 9.28125 8.59375 C 10.234375 14.886719 11.972656 17.539062 14.988281 19.511719 C 18.007812 17.539062 19.738281 14.890625 20.691406 8.59375 Z M 20.691406 8.59375 " fill-opacity="1" fill-rule="evenodd"/><g clip-path="url(#id3)"><path fill="#000000" d="M 14.886719 20.503906 C 13.148438 19.71875 11.703125 18.175781 10.574219 16.105469 C 9.398438 13.945312 8.570312 11.203125 8.128906 8.144531 L 8.097656 7.941406 L 8.285156 7.855469 C 8.820312 7.617188 9.359375 7.421875 9.898438 7.265625 C 10.433594 7.113281 10.96875 6.996094 11.503906 6.925781 L 11.570312 7.449219 C 11.058594 7.523438 10.546875 7.628906 10.035156 7.777344 C 9.582031 7.90625 9.125 8.070312 8.671875 8.265625 C 9.117188 11.175781 9.914062 13.78125 11.03125 15.835938 C 12.082031 17.765625 13.410156 19.207031 14.996094 19.960938 C 16.578125 19.207031 17.910156 17.765625 18.960938 15.835938 C 20.078125 13.78125 20.875 11.175781 21.320312 8.265625 C 20.863281 8.074219 20.410156 7.910156 19.957031 7.777344 C 19.445312 7.625 18.929688 7.519531 18.421875 7.449219 L 18.488281 6.925781 C 19.023438 6.996094 19.558594 7.113281 20.09375 7.265625 C 20.632812 7.421875 21.167969 7.617188 21.707031 7.855469 L 21.894531 7.941406 L 21.863281 8.144531 C 21.417969 11.203125 20.589844 13.941406 19.417969 16.105469 C 18.289062 18.175781 16.84375 19.71875 15.105469 20.503906 Z M 14.886719 20.503906 " fill-opacity="1" fill-rule="nonzero"/></g><g fill="#000000" fill-opacity="1"><g transform="translate(11.736643, 23.110158)"><g><path d="M 0.949219 -1.589844 L 0.949219 -1.949219 L 0.0703125 -1.949219 L 0.0703125 -1.589844 L 0.21875 -1.589844 L 0.21875 -0.363281 L 0.0703125 -0.363281 L 0.0703125 0 L 0.949219 0 L 0.949219 -0.363281 L 0.796875 -0.363281 L 0.796875 -0.660156 L 1.003906 -0.835938 L 1.304688 -0.363281 L 1.113281 -0.363281 L 1.113281 0 L 2.203125 0 L 2.203125 -0.363281 L 2.039062 -0.363281 L 1.476562 -1.242188 L 1.882812 -1.589844 L 2.042969 -1.589844 L 2.042969 -1.949219 L 1.113281 -1.949219 L 1.113281 -1.589844 L 1.316406 -1.589844 L 0.796875 -1.132812 L 0.796875 -1.589844 Z M 0.949219 -1.589844 "/></g></g></g><g fill="#000000" fill-opacity="1"><g transform="translate(14.008132, 23.110158)"><g><path d="M 2.253906 0 L 2.253906 -0.363281 L 2.058594 -0.363281 L 1.5625 -1.949219 L 0.492188 -1.949219 L 0.492188 -1.589844 L 0.609375 -1.589844 L 0.230469 -0.363281 L 0.0429688 -0.363281 L 0.0429688 0 L 0.929688 0 L 0.929688 -0.363281 L 0.710938 -0.363281 L 0.769531 -0.554688 L 1.339844 -0.554688 L 1.398438 -0.363281 L 1.132812 -0.363281 L 1.132812 0 Z M 0.871094 -0.890625 L 1.054688 -1.492188 L 1.238281 -0.890625 Z M 0.871094 -0.890625 "/></g></g></g><g fill="#000000" fill-opacity="1"><g transform="translate(16.301917, 23.110158)"><g><path d="M 0.0703125 0 L 0.558594 0 L 0.589844 -0.214844 C 0.695312 -0.0898438 0.890625 0.0429688 1.171875 0.0429688 C 1.503906 0.0429688 1.910156 -0.113281 1.910156 -0.550781 C 1.910156 -1.203125 0.804688 -1.136719 0.804688 -1.425781 C 0.804688 -1.523438 0.917969 -1.570312 0.996094 -1.570312 C 1.191406 -1.570312 1.355469 -1.453125 1.355469 -1.25 L 1.859375 -1.25 L 1.859375 -1.949219 L 1.378906 -1.949219 L 1.351562 -1.714844 C 1.242188 -1.921875 1.003906 -2 0.769531 -2 C 0.496094 -2 0.105469 -1.8125 0.105469 -1.398438 C 0.105469 -0.6875 1.175781 -0.78125 1.175781 -0.5625 C 1.175781 -0.445312 1.035156 -0.421875 0.9375 -0.421875 C 0.820312 -0.429688 0.589844 -0.46875 0.589844 -0.703125 L 0.0703125 -0.703125 Z M 0.0703125 0 "/></g></g></g><g fill="#000000" fill-opacity="1"><g transform="translate(18.280759, 23.110158)"><g><path d="M 0.0703125 -1.949219 L 0.0703125 -1.582031 L 0.246094 -1.582031 L 0.246094 -0.371094 L 0.0703125 -0.371094 L 0.0703125 0 L 0.996094 0 L 0.996094 -0.371094 L 0.820312 -0.371094 L 0.820312 -1.582031 L 0.996094 -1.582031 L 0.996094 -1.949219 Z M 0.0703125 -1.949219 "/></g></g></g><g fill="#ff1616" fill-opacity="1"><g transform="translate(11.522062, 25.428866)"><g><path d="M 1.265625 -1.859375 L 2.046875 0 L 1.609375 0 L 1.453125 -0.40625 L 0.65625 -0.40625 L 0.484375 0 L 0.0625 0 L 0.828125 -1.859375 Z M 1.296875 -0.765625 L 1.046875 -1.34375 L 0.8125 -0.765625 Z M 1.296875 -0.765625 "/></g></g></g><g fill="#ff1616" fill-opacity="1"><g transform="translate(13.643421, 25.428866)"><g><path d="M 1.46875 -1.3125 C 1.46875 -1.25 1.457031 -1.191406 1.4375 -1.140625 C 1.414062 -1.085938 1.390625 -1.035156 1.359375 -0.984375 C 1.335938 -0.941406 1.304688 -0.90625 1.265625 -0.875 C 1.222656 -0.84375 1.175781 -0.816406 1.125 -0.796875 L 1.734375 0 L 1.28125 0 L 0.703125 -0.75 L 0.515625 -0.75 L 0.515625 0 L 0.125 0 L 0.125 -1.859375 L 0.921875 -1.859375 C 0.992188 -1.859375 1.0625 -1.84375 1.125 -1.8125 C 1.195312 -1.789062 1.253906 -1.753906 1.296875 -1.703125 C 1.347656 -1.648438 1.390625 -1.585938 1.421875 -1.515625 C 1.453125 -1.453125 1.46875 -1.382812 1.46875 -1.3125 Z M 0.875 -1.109375 C 0.925781 -1.109375 0.96875 -1.125 1 -1.15625 C 1.039062 -1.195312 1.0625 -1.25 1.0625 -1.3125 C 1.0625 -1.363281 1.039062 -1.40625 1 -1.4375 C 0.96875 -1.476562 0.925781 -1.5 0.875 -1.5 L 0.515625 -1.5 L 0.515625 -1.109375 Z M 0.875 -1.109375 "/></g></g></g><g fill="#ff1616" fill-opacity="1"><g transform="translate(15.464736, 25.428866)"><g><path d="M 1.75 -1.859375 L 2.125 -1.859375 L 2.125 0 L 1.734375 0 L 1.734375 -1.234375 L 1.28125 -0.609375 L 0.96875 -0.609375 L 0.515625 -1.203125 L 0.515625 0 L 0.125 0 L 0.125 -1.859375 L 0.5 -1.859375 L 1.125 -1 Z M 1.75 -1.859375 "/></g></g></g><g fill="#ff1616" fill-opacity="1"><g transform="translate(17.736115, 25.428866)"><g><path d="M 1.296875 -1.859375 L 1.765625 -1.859375 L 1.109375 -0.875 L 1.109375 0 L 0.71875 0 L 0.71875 -0.875 L 0.046875 -1.859375 L 0.53125 -1.859375 L 0.90625 -1.28125 Z M 1.296875 -1.859375 "/></g></g></g></svg>